<?xml version="1.0" standalone="no"?><!DOCTYPE svg PUBLIC "-//W3C//DTD SVG 1.1//EN" "http://www.w3.org/Graphics/SVG/1.1/DTD/svg11.dtd"><svg t="1642266068995" class="icon" viewBox="0 0 1024 1024" version="1.1" xmlns="http://www.w3.org/2000/svg" p-id="1971" xmlns:xlink="http://www.w3.org/1999/xlink" width="200" height="200"><defs><style type="text/css"></style></defs><path d="M435.2 681H317.3c-19.2 0-34.9 15.6-34.9 34.9v154.9c0 19.2 15.6 34.9 34.9 34.9h117.9c19.2 0 34.9-15.6 34.9-34.9V715.9c-0.1-19.3-15.7-34.9-34.9-34.9zM448.6 387.4c0-10.9-8.8-19.7-19.7-19.7H325.4c-10.9 0-19.7 8.8-19.7 19.7v269.3h142.8l0.1-269.3z" fill="#E35A6C" p-id="1972"></path><path d="M417.1 405.9c9.4 8.5 20 13.6 31.4 16.6v-24.8c-0.4-0.2-0.8-0.5-1.2-0.8-18-12.5-38.2-16.9-59.1-19.6-15.1-1.9-30.4-3.4-45.6-4.5-8-0.6-15.7-2.1-23.1-4.2-5.6 1.8-10.1 6-12.3 11.3 19.7 8.2 40.8 8.4 61.8 8.7 18 0.3 34.5 5.1 48.1 17.3zM307.8 599.7c0.4-0.8 0.7-1.5 1.1-2.3-1.1-0.8-2.1-1.7-3.2-2.6v4.7c0.7 0.1 1.4 0.1 2.1 0.2zM374.2 518.8c-24.3-3.7-46.7-11.5-65-29-1.2-1.1-2.3-2.2-3.5-3.2v22.8c12.6 10.4 26.9 16.9 43.2 20.1 10.5 2.1 20.8 5.3 31.1 8.4 7.4 2.2 13 6.4 15.6 14.4 1 3.2 4.3 6.3 7.3 8.3 13.9 8.9 29.2 14.2 45.6 15.8V546.1c-7.1-2.9-14.1-6-21-9.2-17.2-7.9-34.4-15.2-53.3-18.1zM361.1 622.3c-11.3-1.1-22.8-2.3-34.2-2.8-7.1-0.3-14.2-0.8-21.2-1.5v14.6c9.9 1.5 19.8 3 29.7 4.2 21.9 2.8 42.6 7.3 60.1 19.9h26.3c-6.8-4.4-13.2-9.5-19.2-15.5-11.3-11.4-25.5-17.3-41.5-18.9zM371.2 585.7c-8.8-7.5-19-14.3-29.7-18.2-11.8-4.3-23.8-8.4-35.8-12.3v20c25.8 4.5 49.6 13.4 70.3 31.4 8.1 7 19.7 11.7 30.3 13.4 14 2.3 28.1 4.5 42.2 6.5v-22c-10.1-0.2-20.2-0.5-30.3-0.6-17.9-0.3-33.2-6.5-47-18.2zM404.7 467.1c14.3 5 29 7.9 43.8 9.7v-19.1c-8.7-2.3-17.4-5-26.1-7.8-16.9-5.6-30.9-13.6-40.7-29.3-8.2-12.9-21.7-16.5-36.6-12.4-5.1 1.4-10 3.3-15 4.9-9.8 3.1-17.6 3.5-24.4 0.9v10.5c10 4.5 20 9 30 13.3 23 9.8 45.4 21.1 69 29.3zM326.7 471.8c17.6 1.8 33.8 6 44.9 21.6 3.8 5.3 9.4 6.8 16 4.7 3.1-0.9 6.9-1.4 9.9-0.6 15.2 4 30.6 7.6 45.2 13.1 1.9 0.7 3.9 1.4 5.8 2.1v-19c-2-0.4-4.1-0.8-6.1-1.2-16.8-3.1-33.8-6.3-50.8-7.3-10-0.6-18.9-1.9-26.7-8.1-8.2-6.5-16.3-13.2-24.2-20.1-10.8-9.5-22.6-16.8-35-22.4v33.4c2.5 1 5.2 1.6 8.2 2 4.3 0.5 8.5 1.4 12.8 1.8zM327.1 740.6c3.8 5.3 9.4 6.8 16 4.7 3.1-0.9 6.9-1.4 9.9-0.6 15.2 4 30.6 7.6 45.2 13.1 23.1 8.7 45.8 14.5 70.2 5 0.6-0.2 1.1-0.4 1.7-0.6v-8.2c-1.4-0.1-2.8-0.2-4.2-0.4-22.7-4.3-45.3-9.6-68-13.9-16.8-3.1-33.8-6.3-50.8-7.3-10-0.6-18.9-1.9-26.7-8.1-8.2-6.5-16.3-13.2-24.2-20.1-2.8-2.4-5.6-4.7-8.5-6.8-3.4 5.4-5.3 11.7-5.3 18.5v3.1c17.5 1.8 33.6 6 44.7 21.6zM462.1 726.6c2.7 0 5.3 0.1 8 0.3v-11c0-1.6-0.1-3.1-0.3-4.7-3.3 0.3-6.6 0.5-10 0.7-28.4 1.3-55.2-6.1-81.9-14.8-11.3-3.8-21.3-8.6-29.7-16.1h-30.9c-7.5 0-14.6 2.4-20.3 6.5 21 9.2 41.6 19.3 63.2 26.8 32.8 11.4 67.4 12.2 101.9 12.3zM433.6 803.3c-17.4-4.5-34.2-11.7-50.6-19.2-17.2-7.9-34.4-15.2-53.3-18.1-16.9-2.6-33-7.2-47.3-15.6v19.4c6.9 3.1 14.2 5.4 22 6.9 10.5 2.1 20.8 5.3 31.1 8.4 7.4 2.2 13 6.4 15.6 14.4 1 3.2 4.3 6.3 7.3 8.3 14.3 9.2 30.1 14.5 47 15.9 5.2 0.4 11-0.8 15.9-2.8 7.3-2.9 13.9-2.8 20.6 0.9 4.2 2.3 8.4 4.5 12.6 6.8 5.2 2.8 10.4 4.7 15.6 5.9v-30.5c-12.1 1.9-24.2 2.4-36.5-0.7zM316.6 869.5c-11.3-1.1-22.8-2.3-34.2-2.8v4.1c0 4.3 0.8 8.5 2.2 12.3 2.1 0.3 4.2 0.6 6.3 0.8 22.9 2.9 44.7 7.8 62.7 21.8h26.7c-7.8-4.7-15.2-10.5-22-17.3-11.5-11.4-25.7-17.3-41.7-18.9zM373.7 851.1c-17.9-0.3-33.2-6.5-47-18.2-8.8-7.5-19-14.3-29.7-18.2-4.8-1.8-9.7-3.5-14.6-5.2v17.8c17.7 5.3 34.2 13.5 49.1 26.4 8.1 7 19.7 11.7 30.3 13.4 35.3 5.8 70.8 10.6 106.4 15 1.2-3.6 1.9-7.4 1.9-11.4v-19.1c-2.6 0.2-5.1 0.3-7.7 0.4-29.5 0.8-59.1-0.5-88.7-0.9z" fill="#F2ABB5" p-id="1973"></path><path d="M383.3 90.2c-3.6 5.1-7.4 10.2-11.6 15.1-12.8 15.2-27 28-41.7 38.4V357.1h89.6V134.1c0-21.8-15.6-39.9-36.3-43.9zM707.2 905.7H589.4c-19.2 0-34.9-15.6-34.9-34.9V410.6c0-19.2 15.6-34.9 34.9-34.9h117.9c19.2 0 34.9 15.6 34.9 34.9v460.2c-0.1 19.3-15.7 34.9-35 34.9z" fill="#E35A6C" p-id="1974"></path><path d="M675.5 393.9c9.8-9.1 22.9-11.9 36.2-12.5 4.7-0.2 9.4-0.3 14.1-0.4-5.4-3.4-11.7-5.3-18.5-5.3h-50.1c-9.2 3.1-18 7.3-26.1 13.6-1.8 1.4-4.2 2.4-6.5 2.9-22.4 5.4-44.8 7.2-67 4-2 4.4-3.1 9.3-3.1 14.4v6c4.9 0.8 9.9 1.5 14.8 2.2 38.5 5.3 75.3 3.4 106.2-24.9zM628.7 555.5c-11.5 6-24.8 9.8-37.7 11.8-12.4 1.9-24.5 1.5-36.5-0.3v34.7c8.9-1.7 17.5-5.3 25.8-11.3 9.4-6.7 19.4-9.4 30.6-3.6 2.7 1.4 6.1 1.9 9.2 2 21.1 0.7 40.6-4.7 58-16.4 4.3-2.9 6.9-8.3 10.5-12.4 3.7-4.2 6.9-9.5 11.6-12.2 6-3.5 13.2-6 20.1-7.1 7.5-1.2 14.8-2.9 21.9-4.9v-17.5c-3.9 1.2-7.9 2.3-12.1 3.1-35.4 6.7-69.3 17.3-101.4 34.1zM701.6 487.9c-29.1-1.5-56.8 5.8-84.7 12.3-20.7 4.8-41.2 10.9-62.4 12.1v8.7c2.7 0.5 5.5 1.3 8.3 2.3 18.1 6.8 35.8 4.9 53.6-1.5 16-5.8 31.8-12.1 48.1-16.6 9.5-2.6 20-3.7 29.7-2.7 8.6 0.9 15.4 0.2 20.8-6.3 7.7-9.3 17-15.3 27.2-19V463.1c-7.5 6.3-15.1 12.6-23.1 18.3-5 3.6-11.7 6.8-17.5 6.5zM609.9 764.2c-18.8 4-37.7 7.4-55.4 2.6v48.9c1.6 0.1 3.2 0.3 4.8 0.6 14.5 3 29 6.1 43.3 10.1 4.5 1.3 9.8 4.5 12 8.4 6.9 11.9 17.7 16.9 30.1 18.3 19 2.2 38.1 3.1 57.1 4.6 15 1.2 28.5 4.8 40.4 10.7v-27.2c-9.2-4.4-19-7.9-29.5-10.6-18.6-4.7-38.2-5.4-57.4-8.1-14.3-2.1-28.5-4.7-39.3-15.4-2.2-2.1-2.8-5.9-4.1-8.9 2.9-1.3 5.8-3.2 8.9-3.8 9.8-1.9 20-2.3 29.5-5.2 31-9.5 61.7-10.2 91.9-3v-17c-24.1-5.3-48.9-6.3-74.3-4.6-4.3 0.2-8.7 0-13 0 1.7-2.7 3.9-3.9 6.1-5 7.9-3.9 17.3-5.3 22.2-14.3 0.8-1.6 5.1-1.6 7.9-1.9 6.6-0.8 13.5-0.7 19.9-2.2 9.8-2.3 19.1-6.9 28.9-8.4 0.8-0.1 1.6-0.3 2.3-0.5v-31.8c-22.4 10.2-44.2 21.9-65.5 34.5-21 12.4-42.7 24-66.8 29.2zM668.7 619.6c-13.5 0.8-27 1.9-40.4 3.4-25 2.7-49.5 1.5-73.8-2v32.6c35.4-4.2 70.6-9.1 106-12.8 23.9-2.5 44.4-11.1 62.4-26.8 5.9-5.2 12.4-9.2 19.3-12.4v-20.1c-11.8 5.5-22.9 12.6-33 21.7-11.3 10.1-25 15.5-40.5 16.4zM673.1 666.4c-20.3 19.7-46 29.2-73.8 32.4-11.8 1.4-24.1-0.8-35.6 1.4-3.1 0.6-6.1 1.1-9.2 1.5v22.6c1.4 0.4 2.7 0.9 4.1 1.3 21.4 7.1 41 5.2 59.1-9.7 5.8-4.9 13.8-8.8 21.2-9.8 16-2.1 28.6-9.2 39.7-20.1 14.6-14.3 32.3-22 52.1-25.5 3.8-0.7 7.7-1.3 11.5-1.9v-18.7c-26.9-1.4-49.5 7.5-69.1 26.5zM650 875.9c-17.6-6.6-35-13.8-52.8-19.9-13.7-4.7-27.3-4.7-41 2-0.5 0.3-1.1 0.5-1.7 0.7v12.1c0 4.5 0.9 8.9 2.4 12.8 13-0.5 26.6-0.6 38.9 2.7 20.6 5.6 40.9 12.6 61.1 19.4h50.3c4.8 0 9.3-1 13.5-2.7-4.8-3.1-10.2-5.5-16.2-7.3-18.4-5.8-36.4-13-54.5-19.8zM710.8 455.5c10.5-4.6 21-9.3 31.4-14.1v-30.8c0-3.1-0.4-6.1-1.2-8.9-0.9-0.2-1.8-0.4-2.6-0.6-13.2-2.6-28.2 3-32.4 13.1-6.2 14.9-18 22.5-31.9 28-29.8 11.8-60.8 18.9-92.7 21.5-9 0.8-18 1.1-26.9 0.9v18c12.7-1 25.4-1.7 38-1.9 41.3-0.3 80.7-8.8 118.3-25.2z" fill="#F2ABB5" p-id="1975"></path></svg>