<?xml version="1.0" standalone="no"?><!DOCTYPE svg PUBLIC "-//W3C//DTD SVG 1.1//EN" "http://www.w3.org/Graphics/SVG/1.1/DTD/svg11.dtd"><svg t="1642265796762" class="icon" viewBox="0 0 1271 1024" version="1.1" xmlns="http://www.w3.org/2000/svg" p-id="1810" xmlns:xlink="http://www.w3.org/1999/xlink" width="248.2421875" height="200"><defs><style type="text/css"></style></defs><path d="M447.927629 358.57369H269.991708c-99.292876 36.281945-170.119864 131.618545-170.119865 243.455711 0 82.9853 39.080286 156.803619 99.775349 204.278929h318.624953c60.695062-47.378816 99.775349-121.29363 99.775348-204.278929 0-111.837165-70.826988-207.173766-170.119864-243.455711z" fill="#E35A6C" p-id="1811"></path><path d="M199.647192 806.30833h63.879382c-31.746702-11.386355-63.975876-21.518281-96.591029-30.395778 10.035432 11.000377 20.939314 21.228798 32.711647 30.395778zM176.874482 623.93366c8.395025 4.921221 16.500565 12.833773 20.842819 21.421787 7.816057 15.342631 19.105918 23.255183 35.509989 25.378062 6.079156 0.771956 12.158311 2.026385 18.237467 2.605353 25.088579 2.605352 48.150773 8.684508 63.975876 30.878251 5.403694 7.526574 13.316246 9.745948 22.77271 6.754617 4.438749-1.350923 9.745948-2.026385 14.088202-0.868451 21.614776 5.789672 43.519035 10.903882 64.361855 18.71994 33.001131 12.447795 65.3268 20.64983 100.161327 7.140596 14.667169-5.693178 29.430833-2.219374 42.940068 6.272144 3.956276 2.508858 8.105541 5.017716 12.254805 7.140596 1.929891-2.798342 3.763287-5.596683 5.596683-8.395025-4.05277-2.12288-8.009046-5.017716-12.061816-8.105541-6.465134-5.017716-15.632115-7.430079-23.930645-8.877497-9.263475-1.543913-19.298907 0.675462-28.465888-1.06144-32.325669-6.17565-64.458349-13.798718-96.880512-19.877874-24.027139-4.438749-48.150773-8.973992-72.467396-10.421409-14.281191-0.771956-26.921975-2.798342-38.018846-11.579345-11.675839-9.263475-23.255183-18.816434-34.545044-28.658876-37.053901-32.422164-81.730871-46.992838-129.109687-53.747456-14.860158-2.12288-29.430833-0.868451-42.264606 5.693178 0 5.210705 0.289484 10.42141 0.578967 15.632114 24.702601-9.842443 54.036939-9.35997 76.423672 3.956276zM202.445533 710.199774c4.824727 4.342254 10.035432 8.202035 14.860159 12.544289 18.912929 17.176027 41.010177 27.500942 66.002261 32.518658 14.956653 2.991331 29.623822 7.526574 44.290992 11.965323 10.517904 3.18432 18.526951 9.070486 22.193743 20.553336 1.447418 4.631738 6.079156 9.070486 10.421409 11.868827 3.763287 2.412363 7.623068 4.631738 11.48285 6.658123h146.575198c6.079156-4.728232 11.965322-9.745948 17.562005-15.053147-22.676216 5.017716-45.448926 8.202035-68.511119 2.219374-24.799095-6.368639-48.826234-16.693554-72.177912-27.404448-24.606106-11.289861-49.115718-21.71127-76.037693-25.860535-34.641538-5.403694-66.484734-16.404071-92.634754-41.396155-12.737279-12.158311-26.632492-23.448172-41.396155-33.097626-26.632492-17.465511-54.036939-19.877874-79.222013-8.10554 2.219374 10.228421 5.017716 20.167358 8.491519 29.816811 31.167735-7.333585 60.984546-1.736902 88.09951 22.77271zM311.291368 395.724086c14.860158-2.026385 29.623822-4.24576 44.483981-6.079156 28.369393-3.473803 40.238221 2.894836 53.264983 28.369393 1.157934 2.12288 2.315869 4.24576 3.377308 6.36864 6.658123 12.737279 17.369016 17.465511 31.26423 16.500565 27.114964-1.833396 46.317377-16.018093 57.317753-39.852243 1.833396-3.956276 3.666792-8.105541 5.307199-12.158311-7.430079-5.11421-15.149642-9.938937-23.062193-14.281191-11.193366 11.675839-26.921975 17.079533-45.545421 16.983038-21.325292-0.096495-40.527704-7.623068-59.826611-15.439126-14.956653-5.982661-30.106295-11.772333-45.159442-17.562005h-62.721447c-7.23709 2.701847-14.377686 5.693178-21.325293 8.877497 14.088202 24.027139 35.606483 31.939691 62.624953 28.272899z" fill="#F2ABB5" p-id="1812"></path><path d="M216.823219 539.211459c30.0098 14.667169 62.528458 14.860158 94.950622 15.342631 25.764041 0.385978 49.212213 7.140596 68.607614 24.606106 23.158688 20.842819 50.949114 27.500942 80.958914 28.562382 35.799472 1.254429 70.344516-6.851112 105.179043-13.026762 16.983038-2.991331 33.966076-7.430079 51.238598-4.728232-0.385978-7.526574-0.964945-14.956653-1.929891-22.290238-14.184697-5.017716-25.764041-14.281191-30.588767-30.395778-8.29853-27.88692-15.439126-55.96683-13.702224-83.467772-10.517904-15.053147-22.483227-28.851866-35.895967-41.299661-0.675462 0.578967-1.447418 1.157934-2.219374 1.736902-4.824727 3.570298-8.202035 11.000377-9.456465 17.272521-3.087825 15.246136-4.438749 30.878251-6.658123 46.413871-1.350923 9.552959-6.368639 16.114587-16.59706 16.018093-21.71127-0.096495-43.422541-0.578967-65.13381-1.157934-19.78138-0.482473-33.290614-8.973992-39.659254-28.755372-5.017716-15.825104-17.369016-24.027139-33.869582-21.807764-21.228798 2.798342-42.168112 7.333585-63.107425 11.28986-14.667169 2.798342-29.141349 7.333585-43.905013 8.684508-19.202412 1.833396-29.913306-5.982661-37.150396-23.737655-2.315869-5.693178-4.24576-11.48285-6.465134-17.176027-3.473803-9.070486-8.588014-16.018093-15.246136-20.746325-11.096871 8.973992-21.421787 18.816434-30.878251 29.430833 7.816057 6.272145 14.088202 15.53562 19.202412 28.079909 7.526574 18.623445 21.518281 29.816811 40.720693 31.264229 20.553336 1.543913 41.396155 0.192989 62.045986-0.964945 29.044855-1.736902 58.282699-4.631738 83.950245 13.123257 25.860535 17.947983 55.098379 25.764041 85.494158 31.264229 29.720317 5.403694 59.440633 11.579344 88.967961 18.044478 5.789672 1.254429 11.096871 5.11421 16.597059 7.719563-0.096495 1.254429-0.096495 2.508858-0.192989 3.666792-4.631738 2.315869-8.973992 5.403694-13.895213 6.851112-28.465888 8.491519-57.607237 10.710893-86.941575 6.851112-12.930268-1.736902-27.983415-2.412363-38.018847-9.35997-25.764041-17.947983-54.422917-24.123634-84.239728-27.983415-21.614776-2.798342-43.326046-4.824727-65.037317-6.465134-37.053901-2.798342-69.090087-19.009423-100.836788-36.571428-14.377686-8.009046-28.851866-12.447795-43.422541-14.184697-2.798342 5.307199-5.500188 10.807388-7.912551 16.404071 12.544289 1.543913 25.185074 5.596683 37.922352 12.061817 19.105918 9.649453 37.922352 19.974369 57.124764 29.430833z" fill="#F2ABB5" p-id="1813"></path><path d="M162.882774 582.344516c34.545043 11.772333 67.642669 28.176404 101.319261 42.650584 32.808142 13.991708 64.844327 30.106295 98.424426 41.782133 46.799849 16.307576 96.012062 17.465511 145.224274 17.562006 20.553336 0.096495 41.203166 4.24576 61.467018 8.009046 9.649453 1.736902 18.044478 7.430079 21.711271 18.140972 0.385978 1.157934 0.964945 2.219374 1.736901 3.280815 13.026762-27.114964 21.421787-56.931775 24.220129-88.196005-1.254429-2.701847-2.991331-5.403694-4.24576-8.105541-3.763287 2.508858-8.877497 4.149265-11.000377 7.623068-13.026762 20.842819-33.001131 29.720317-55.773841 33.676593-13.702224 2.412363-27.597437 3.859781-41.49265 4.535243-40.43121 1.833396-78.73954-8.684508-116.758386-21.132303-24.027139-7.816057-44.001508-19.395401-57.993216-41.685639-11.579344-18.526951-30.781757-23.641161-52.107048-17.754994-7.140596 2.026385-14.184697 4.728232-21.325292 6.947606-28.176404 8.781003-44.676969 2.12288-60.598568-22.483226-5.017716-7.623068-11.868828-16.404071-19.877874-19.395402-22.869205-8.588014-45.641915-14.088202-67.642669-11.096871-3.280814 12.544289-5.596683 25.571052-6.947606 38.790803 20.456841-2.412363 41.106672-0.192989 61.660007 6.851112zM1224.515643 1024c0.964945-1.350923 1.833396-2.701847 2.798341-3.763287-0.868451-0.096495-1.833396-0.385978-2.798341-0.578967v4.342254c0-0.096495 0-0.096495 0 0zM1224.515643 818.756125c-0.096495 0-0.096495-0.096495-0.192989-0.096494v0.289483c0.096495-0.096495 0.096495-0.192989 0.192989-0.192989z" fill="#F2ABB5" p-id="1814"></path><path d="M446.383717 337.634376v-111.93366c0-32.422164-27.500942-58.668677-61.467019-58.668677h-51.817565c-33.966076 0-61.467018 26.246513-61.467018 58.668677v111.93366h174.751602z" fill="#E35A6C" p-id="1815"></path><path d="M456.03317 240.367885h190.962684v21.711271H456.03317z" fill="#F2AAB4" p-id="1816"></path><path d="M566.422917 251.271768a131.522051 97.073502 0 1 0 263.044101 0 131.522051 97.073502 0 1 0-263.044101 0Z" fill="#F2AAB4" p-id="1817"></path><path d="M358.959668 250.403317m-21.518281 0a21.518281 21.518281 0 1 0 43.036562 0 21.518281 21.518281 0 1 0-43.036562 0Z" fill="#F2AAB4" p-id="1818"></path><path d="M358.959668 250.403317m-7.333584 0a7.333585 7.333585 0 1 0 14.667169 0 7.333585 7.333585 0 1 0-14.667169 0Z" fill="#E35A6C" p-id="1819"></path></svg>