<?xml version="1.0" standalone="no"?><!DOCTYPE svg PUBLIC "-//W3C//DTD SVG 1.1//EN" "http://www.w3.org/Graphics/SVG/1.1/DTD/svg11.dtd"><svg t="1640865258740" class="icon" viewBox="0 0 1024 1024" version="1.1" xmlns="http://www.w3.org/2000/svg" p-id="50479" xmlns:xlink="http://www.w3.org/1999/xlink" width="200" height="200"><defs><style type="text/css"></style></defs><path d="M279.7 493.6V140.1s-1.9-28.5 28.5-28.5 87.5 51.4 87.5 51.4 17.2 12.4 17.2 51.4v279.3H279.7v-0.1z" fill="#FF9797" p-id="50480"></path><path d="M395.6 163s-24.2-21.8-49.5-36.9v327.3h66.5V214.3c0.2-39-17-51.3-17-51.3z" fill="#FF7676" p-id="50481"></path><path d="M453.6 553.1H238.7V321c0-1.9 1.5-3.4 3.4-3.4h208.1c1.9 0 3.4 1.5 3.4 3.4v232.1z" fill="#FFCCCC" p-id="50482"></path><path d="M346.1 553.1h107.4V321c0-1.9-1.5-3.4-3.4-3.4h-104v235.5z" fill="#FFB0B0" p-id="50483"></path><path d="M452.2 912.7H240.1c-11.6 0-20.9-9.3-20.9-20.9V621.4c0-1.7 1.3-3 3-3h247.9c1.7 0 3 1.3 3 3v270.5c0.1 11.5-9.3 20.8-20.9 20.8z" fill="#FFCCCC" p-id="50484"></path><path d="M454.2 912.7h-89.1c-10.4 0-19-8.5-19-19V622.1c0-10.4 8.5-19 19-19h89.1c10.4 0 19 8.5 19 19v271.8c0 10.4-8.5 18.8-19 18.8z" fill="#FFB0B0" p-id="50485"></path><path d="M454 912.7H238.4c-10.5 0-19.2-8.5-19.2-19.2v-7.4h254v7.4c0 10.7-8.6 19.2-19.2 19.2z" fill="#FF9797" p-id="50486"></path><path d="M454 912.7H346.1v-26.5H473v7.4c0.2 10.6-8.4 19.1-19 19.1z" fill="#F78484" p-id="50487"></path><path d="M473.2 624.2h-254v-20.7c0-1.7 1.3-3 3-3h247.9c1.7 0 3 1.3 3 3l0.1 20.7z" fill="#FFE9E9" p-id="50488"></path><path d="M473.2 624.2H346.1v-23.7H470c1.7 0 3 1.3 3 3l0.2 20.7z" fill="#FFE3E3" p-id="50489"></path><path d="M460.4 600.6H232v-44.1c0-1.9 1.5-3.4 3.4-3.4h221.7c1.9 0 3.4 1.5 3.4 3.4v44.1z" fill="#FF9797" p-id="50490"></path><path d="M460.4 600.6H346.1v-47.4H457c1.9 0 3.4 1.5 3.4 3.4v44z" fill="#FF8D8D" p-id="50491"></path><path d="M346.1 576.8m-9.5 0a9.5 9.5 0 1 0 19 0 9.5 9.5 0 1 0-19 0Z" fill="#FFD7D7" p-id="50492"></path><path d="M346.1 586.3c5.3 0 9.5-4.3 9.5-9.5s-4.3-9.5-9.5-9.5v19z" fill="#FCC8C8" p-id="50493"></path><path d="M804.8 486.3v400.4c0 14.4-11.7 26-26 26H576.9c-14.4 0-26-11.7-26-26V426.5S553 154 677.8 154s126.9 272.5 126.9 272.5v59.8z" fill="#FFAEAE" p-id="50494"></path><path d="M236.9 808h-1.7c-1.8 0-3.1-1.5-3.1-3.1V665.3c0-1.8 1.5-3.1 3.1-3.1h1.7c1.8 0 3.1 1.5 3.1 3.1v139.6c0.2 1.7-1.3 3.1-3.1 3.1z" fill="#FFF5F5" p-id="50495"></path><path d="M236.1 645.7m-4 0a4 4 0 1 0 8 0 4 4 0 1 0-8 0Z" fill="#FFF5F5" p-id="50496"></path><path d="M804.8 886.7V426.5S802.7 154 677.9 154v758.8h100.9c14.3-0.1 26-11.7 26-26.1z" fill="#FF9797" p-id="50497"></path><path d="M550.8 600.6h254v23.8h-254z" fill="#FFE9E9" p-id="50498"></path><path d="M677.9 600.6h126.9v23.8H677.9z" fill="#F9D7D7" p-id="50499"></path><path d="M785.6 912.7H570c-10.5 0-19.2-8.5-19.2-19.2v-7.4h254v7.4c0 10.7-8.5 19.2-19.2 19.2z" fill="#FF9797" p-id="50500"></path><path d="M785.6 912.7H677.7v-26.5h126.9v7.4c0.2 10.6-8.3 19.1-19 19.1z" fill="#F78484" p-id="50501"></path><path d="M570 576.8h-1.7c-1.8 0-3.1-1.5-3.1-3.1V434c0-1.8 1.5-3.1 3.1-3.1h1.7c1.8 0 3.1 1.5 3.1 3.1v139.6c0 1.7-1.3 3.2-3.1 3.2z" fill="#FFF5F5" p-id="50502"></path><path d="M569.1 414.5m-4 0a4 4 0 1 0 8 0 4 4 0 1 0-8 0Z" fill="#FFF5F5" p-id="50503"></path><path d="M232.1 599.1h228.3v1.5H232.1z" fill="#F47A7A" p-id="50504"></path><path d="M238.7 551.4h214.9v1.7H238.7z" fill="#F2ADAD" p-id="50505"></path><path d="M279.7 316.1h133v1.5h-133z" fill="#F47676" p-id="50506"></path></svg>