<?xml version="1.0" standalone="no"?><!DOCTYPE svg PUBLIC "-//W3C//DTD SVG 1.1//EN" "http://www.w3.org/Graphics/SVG/1.1/DTD/svg11.dtd"><svg t="1641536943531" class="icon" viewBox="0 0 1024 1024" version="1.1" xmlns="http://www.w3.org/2000/svg" p-id="1289" xmlns:xlink="http://www.w3.org/1999/xlink" width="200" height="200"><defs><style type="text/css"></style></defs><path d="M737.966141 26.166303v220.062886a13.581784 13.581784 0 0 1-8.927885 12.632008 13.154385 13.154385 0 0 1-4.748876 0.807309h-38.275935a52.237629 52.237629 0 0 0 36.708806-49.815703V12.726986h1.567129a13.534295 13.534295 0 0 1 13.676761 13.439317z" fill="#F95D7B" p-id="1290"></path><path d="M661.176826 12.726986a13.486806 13.486806 0 0 0-13.439317 13.439317v220.062886a13.486806 13.486806 0 0 0 13.439317 13.439317h25.026574a52.237629 52.237629 0 0 0 36.708806-49.815703V12.726986z m28.493253 73.607569a14.246626 14.246626 0 0 1-28.493253 0v-37.991004a14.246626 14.246626 0 1 1 28.493253 0z" fill="#FF97A9" p-id="1291"></path><path d="M486.275746 323.350925v-3.846589a26.451236 26.451236 0 0 0-1.092242-6.505959 26.736168 26.736168 0 0 0-24.076798-18.995502h-4.131521L431.61619 294.430274c2.326949-11.112368 4.131522-22.272226 5.556184-33.242128 1.092241-7.835644 1.89955-15.671289 2.611882-23.506933l0.522376-5.888605a30.582758 30.582758 0 0 0-1.282196-10.257571A31.295089 31.295089 0 0 0 426.867315 204.534063a31.62751 31.62751 0 0 0-9.497751-4.748875 28.493252 28.493252 0 0 0-5.318741-0.997264H407.871813q-5.888605-0.284933-11.729722-0.284933c-7.835644 0-15.671289 0.332421-23.506933 0.902287a431.38784 431.38784 0 0 0-47.013867 4.748875 243.094931 243.094931 0 0 1-47.013866 5.413718 136.340212 136.340212 0 0 1-23.506933-2.27946c-3.894078-0.664843-7.835644-1.567129-11.729722-2.326949l-1.709596-0.332422h-2.184482a25.311506 25.311506 0 0 0-4.748876 0 26.023837 26.023837 0 0 0-8.975374 2.754348 27.495988 27.495988 0 0 0-12.869452 14.246626 28.825674 28.825674 0 0 0-1.994528 9.877661V237.443769c0 7.835644 0.664843 15.671289 1.424663 23.506934a213.177016 213.177016 0 0 0 7.360756 39.083244L194.172421 300.746278h-3.704123a19.612855 19.612855 0 0 0-17.285907 14.246627 18.995502 18.995502 0 0 0-0.664842 4.748875v3.514168c0.522376 17.52335 0.664843 35.0467 0.997264 52.522561q1.472151 105.092612-2.326949 210.137736l-3.799101 105.235079c-0.569865 17.52335-1.044753 35.0467-1.282196 52.522562 0 8.832908-0.427399 17.285906-0.427399 26.498724A241.717757 241.717757 0 0 0 167.673696 797.811065q0.902286 6.885869 2.184483 13.676761c0.854798 4.748875 1.852061 9.070352 2.849325 13.249363l6.031072 25.596438L184.67467 875.835088l6.553448 25.453972c8.595464 33.90697 18.093215 67.623986 27.4485 101.341001a20.277698 20.277698 0 0 0 7.97811 14.246626 19.945277 19.945277 0 0 0 8.073088 3.561656 20.56263 20.56263 0 0 0 4.368966 0.332422h3.03928l24.219264-1.13973 48.391041-1.804573 48.580995-1.567129c16.146176-0.237444 32.292353-0.284933 48.39104-0.332421a14.958957 14.958957 0 0 0 15.148913-14.341604q5.983583-25.54895 12.489542-51.002922c4.273988-17.000974 8.642953-33.954459 13.249362-50.860455s9.212818-33.811993 13.914205-50.717989l7.028336-25.358995a262.042944 262.042944 0 0 0 6.268515-26.308769 238.488522 238.488522 0 0 0 3.324213-27.211056c0.474888-9.117841 0.949775-17.618328 1.234708-26.451236 0.569865-17.52335 1.424663-35.0467 1.757083-52.522562 0.949775-35.0467 1.282196-70.045912 1.567129-105.092612 0.854798-70.045912 0-140.091824-0.617354-210.137736zM235.34517 260.903214c0.75982-7.835644 1.187219-15.671289 1.424663-23.506933v-5.841117a11.44479 11.44479 0 0 1 0-1.662106 8.120577 8.120577 0 0 1 1.377174-3.894078 7.645689 7.645689 0 0 1 1.709595-1.89955 6.07856 6.07856 0 0 1 1.187219-0.807309L241.661174 223.197143l1.472152-0.284932c3.894078-0.75982 7.835644-1.662106 11.729722-2.326949a136.292724 136.292724 0 0 1 23.506933-2.27946 243.094931 243.094931 0 0 1 47.013867 5.413718 431.38784 431.38784 0 0 0 47.013866 4.748875c7.835644 0.569865 15.671289 0.902286 23.506933 0.902286q5.888605 0 11.729722-0.284932h2.231972a2.27946 2.27946 0 0 1 1.044752 0 4.416454 4.416454 0 0 1 2.042017 1.472151 5.888605 5.888605 0 0 1 0.664842 1.282196l0.617354 5.603673c0.75982 7.835644 1.51964 15.671289 2.611881 23.506934 1.424663 11.207346 3.229235 22.367203 5.556185 33.574549l-44.449474 0.75982-52.522562 1.329685-97.446923 3.134258a213.699392 213.699392 0 0 0 7.360757-38.845801z m226.331401 534.011037a244.377127 244.377127 0 0 1-3.514168 25.264017l-4.748875 25.881371c-3.03928 17.285906-6.031072 34.524324-9.497751 51.762742s-6.458471 34.429347-9.925149 51.620275-6.980847 34.334369-10.68497 51.430321v0.332421a12.014655 12.014655 0 0 1-11.919677 12.014655c-16.146176 0-32.292353 0-48.39104-0.332421l-48.391041-1.139731-48.39104-1.804572-24.219264-1.13973h-3.039281a8.215554 8.215554 0 0 1-1.662106-0.332422 7.408246 7.408246 0 0 1-2.754348-1.662106 6.743403 6.743403 0 0 1-2.089505-5.508695v-1.567129c-6.07856-34.524324-12.109632-69.096137-18.995501-103.430506L208.419047 870.468859l-5.366229-25.738905-5.603673-25.691416c-0.949775-4.368965-1.947039-8.405509-2.706859-12.394565s-1.472151-8.120577-2.042017-12.252098a216.406251 216.406251 0 0 1-1.947039-24.741641l-0.474887-26.071326a2759.096601 2759.096601 0 0 0-1.282197-52.522561l-3.846589-105.092613q-3.894078-105.092612-2.326949-210.137736c0.284933-17.52335 0.474888-35.0467 0.997264-52.522562v-3.03928a7.075824 7.075824 0 0 1 0.854798-1.757084 7.503223 7.503223 0 0 1 5.081296-4.748875 7.265779 7.265779 0 0 1 1.709596 0H194.172421l26.26128 0.807309 105.092613 3.371701 52.522562 1.329685 52.522561 0.902287 26.261281 0.37991h2.421927v2.754347l-0.712332 52.522562c-0.807309 70.045912-1.472151 140.091824-0.617353 210.137736 0.332421 35.0467 0.617354 70.045912 1.567128 105.092613 0.332421 17.52335 1.187219 35.0467 1.757084 52.522561 0.237444 8.690442 0.854798 17.713305 1.13973 26.071326a218.970644 218.970644 0 0 1-0.712331 25.264017zM855.073408 614.551964l-0.284932-17.808283v-8.073088a28.493252 28.493252 0 0 0-0.854798-4.748875 28.018365 28.018365 0 0 0-27.306033-20.610119h-8.927886l-17.808283 0.332421-35.616565 0.664842q-23.174512 0.427399-46.396513 1.044753c3.561657-36.233919 5.841117-72.42035 7.740667-108.654269l1.472152-32.149886 1.092241-32.197375c0.75982-21.464917 1.187219-42.739878 1.424663-64.394751 0-22.604647 0-45.209294-0.37991-67.81394a15.908733 15.908733 0 0 0 10.779947-13.201874c0.474888-6.980847 0.997264-13.629272 1.804572-20.467653 1.472151-13.534295 3.704123-27.116078 5.603673-40.697862s3.561657-27.116078 4.321477-40.697862 1.187219-27.116078 1.424663-40.697862 0-27.116078-0.284933-40.697862l-0.664843-20.325187-0.37991-10.115104-0.237443-4.748876v-3.03928a30.535269 30.535269 0 0 0-0.75982-5.081297A26.403747 26.403747 0 0 0 729.988031 0.474888a24.836618 24.836618 0 0 0-4.748876-0.474888h-2.801836c-6.790892 0.284933-13.581784 0.664843-20.372676 1.187219-13.581784 0.902286-27.116078 2.469415-40.697862 3.656634a20.657608 20.657608 0 0 0-13.914205 6.505959 20.325187 20.325187 0 0 0-5.556184 13.629273V30.392802l0.37991 5.081297 0.522376 10.210082c0.522376 13.534295 0.664843 27.116078 0 40.697862-0.854798 27.116078-5.461207 54.232157-7.313268 81.395724q-1.377174 20.325187-0.712331 40.697863c0 6.743403 0.617354 13.534295 1.234708 20.325186 0.332421 3.371702 0.617354 6.790892 1.044752 10.162594l0.569865 5.081296 0.37991 2.896814a21.939804 21.939804 0 0 0 11.112369 16.716042 21.132495 21.132495 0 0 0 7.455734 2.421926 20.895052 20.895052 0 0 0 3.846589 0 20.040254 20.040254 0 0 0 2.706859-0.332421c-1.472151 20.800074-2.991791 41.55266-3.894078 62.352734s-1.092241 42.739878-0.75982 64.39475 0.75982 42.739878 1.567129 64.347261c1.614618 36.803784 3.561657 73.56008 7.550712 110.363864l-46.301535 2.042017-35.616565 1.567129-17.808283 0.712331-8.927886 0.332421a18.995502 18.995502 0 0 0-18.995501 17.570839V596.601215l0.37991 17.808283c0.237444 11.872188 0 23.744377 0.332421 35.616565 0 23.744377-0.237444 47.488754-1.092241 71.233131-0.284933 11.872188-0.997264 23.744377-1.472152 35.616565 0 5.888605-0.664843 11.919677-0.712331 18.093216s0 12.299587 0.474887 18.473125a299.701526 299.701526 0 0 0 4.748876 36.281408c2.184483 11.682233 4.131522 23.411956 6.505959 35.0467 8.975374 46.586468 19.80281 92.698048 32.76724 138.382229a23.744377 23.744377 0 0 0 9.497751 16.146176 23.269489 23.269489 0 0 0 9.497751 4.131522 23.744377 23.744377 0 0 0 5.081296 0.37991h3.039281l24.219264-1.614618c16.146176-1.044753 32.292353-2.231971 48.39104-3.134257s32.292353-1.804573 48.391041-2.231972 32.292353-0.664843 48.39104-0.664842a14.958957 14.958957 0 0 0 10.589992-4.321477 15.196401 15.196401 0 0 0 4.511432-10.589992v0.37991c11.06488-46.206558 24.979085-91.748273 38.750823-137.337476l10.115104-34.239392a291.248528 291.248528 0 0 0 8.547976-35.948987c0.949775-6.221027 1.662106-12.442054 2.089505-18.758057 0-3.134258 0.332421-6.268516 0.427399-9.497751v-8.927886l0.617354-35.616565q0.474888-35.616565 0.427399-71.233131z m-193.896582-354.883458a13.486806 13.486806 0 0 1-13.439317-13.439317V26.166303a13.486806 13.486806 0 0 1 13.439317-13.439317h63.302509a13.534295 13.534295 0 0 1 13.486806 13.439317v220.062886a13.581784 13.581784 0 0 1-8.927885 12.632008 13.154385 13.154385 0 0 1-4.748876 0.807309zM683.306586 328.242267c-0.949775-21.464917-2.516904-42.739878-4.036545-64.442239l4.463943-0.522376c5.176274-0.569865 10.400037-0.997264 15.576312-1.329686-0.427399 22.129759-0.617354 44.21203-0.37991 66.484256s0.664843 42.739878 1.424662 64.39475l1.092242 32.197375 1.472151 32.149887c1.947039 36.281408 4.226499 72.562816 7.788156 108.844224l-17.950749 0.522376-17.760794 0.712331c3.941567-36.708807 5.888605-73.370125 7.455734-110.078931q1.282196-32.149886 1.614618-64.347262t-0.75982-64.584705z m142.086351 462.825395a285.169967 285.169967 0 0 1-4.748875 34.001948l-5.651162 35.236655c-7.218291 47.061355-14.246626 94.170199-24.171776 140.614201v0.37991a11.8247 11.8247 0 0 1-3.41919 8.452998 12.014655 12.014655 0 0 1-8.452998 3.609145c-16.146176 0-32.292353 0-48.39104-0.664842s-32.292353-1.282196-48.391041-2.231972-32.292353-2.089505-48.39104-3.134258l-24.219264-1.614617h-3.03928l-0.902287-0.284933a4.084033 4.084033 0 0 1-1.377174-1.044752 3.229235 3.229235 0 0 1-0.712331-2.849326v-0.332421l-0.332421-1.994528c-7.930622-46.918889-18.093215-93.315401-30.060381-139.284515-2.849325-11.539767-6.173538-22.937068-9.212819-34.429346a307.822103 307.822103 0 0 1-8.215554-33.669527 244.519594 244.519594 0 0 1-3.324213-34.524324c-0.474888-11.872188-1.187219-23.744377-1.472151-35.616565-0.807309-23.744377-1.234708-47.488754-1.092242-71.233131 0-11.872188 0-23.744377 0.332422-35.616565l0.37991-17.808283v-4.463943-1.757084a8.642953 8.642953 0 0 1 0.284932-1.329685 7.883133 7.883133 0 0 1 8.073088-5.508695l8.927886 0.332421 17.808283 0.712331 35.616565 1.567129c23.744377 1.044753 47.488754 2.27946 71.233131 2.991791s47.488754 1.282196 71.233131 1.757084l35.616565 0.664843 17.808283 0.332421h7.835644v4.463943l-0.284932 17.808283-0.284933 35.616565q0 35.616565 0.427399 71.233131l0.617354 35.616565V774.351621c0.664843 5.508695 0.332421 11.112368 0 16.716041z m0.712331-198.835412h0.284933s-0.047489 0.047489-0.237444 0z" fill="#315472" p-id="1292"></path></svg>